<svg version="1.1" viewBox="0 0 479.83 450.711" height="450.711pt" width="479.83pt" xmlns:xlink="http://www.w3.org/1999/xlink" xmlns="http://www.w3.org/2000/svg">
<defs>
<clipPath id="clip1">
  <path d="M 137 109 L 331 109 L 331 450.710938 L 137 450.710938 Z M 137 109"></path>
</clipPath>
<clipPath id="clip2">
  <path d="M 124 103 L 337 103 L 337 450.710938 L 124 450.710938 Z M 124 103"></path>
</clipPath>
<clipPath id="clip3">
  <path d="M 0 97 L 479.828125 97 L 479.828125 320 L 0 320 Z M 0 97"></path>
</clipPath>
</defs>
<g id="surface1">
<path d="M 425.625 27.695313 C 455.261719 66.554688 389.988281 166.152344 279.839844 250.15625 C 169.691406 334.15625 56.371094 370.75 26.734375 331.890625 C -2.898438 293.027344 62.371094 193.429688 172.519531 109.425781 C 282.671875 25.425781 395.988281 -11.167969 425.625 27.695313" style="stroke:none;fill-rule:nonzero;fill:rgb(95.167542%,36.587524%,29.718018%);fill-opacity:1;"></path>
<path d="M 384.796875 0 L 384.796875 12.167969 L 384.792969 0 L 384.78125 0 C 329.980469 0.0078125 245.816406 38.230469 165.144531 99.753906 C 110.800781 141.195313 65.304688 187.777344 37.03125 230.917969 C 6.453125 277.578125 -0.636719 316.058594 17.0625 339.265625 C 27.339844 352.746094 44.335938 359.582031 67.574219 359.582031 C 122.371094 359.582031 206.535156 321.359375 287.21875 259.828125 C 341.558594 218.386719 387.058594 171.808594 415.328125 128.667969 C 445.90625 82.003906 452.996094 43.527344 435.296875 20.316406 C 425.019531 6.835938 408.027344 0 384.796875 0 M 384.785156 12.167969 C 403.402344 12.164063 417.585938 17.152344 425.625 27.695313 C 455.261719 66.554688 389.988281 166.15625 279.839844 250.15625 C 199.566406 311.371094 117.597656 347.417969 67.574219 347.417969 C 48.957031 347.417969 34.773438 342.429688 26.734375 331.890625 C -2.898438 293.027344 62.371094 193.429688 172.519531 109.425781 C 252.792969 48.210938 334.761719 12.171875 384.785156 12.167969" style="stroke:none;fill-rule:nonzero;fill:rgb(45.843506%,16.220093%,13.33313%);fill-opacity:1;"></path>
<g clip-rule="nonzero" clip-path="url(#clip1)">
<path d="M 308.476563 277.726563 C 312.132813 278.039063 316.300781 278.355469 320.117188 277.089844 C 324.386719 275.675781 327.492188 272.785156 329.125 269.027344 C 330.199219 266.132813 330.917969 261.664063 328.746094 255.613281 L 308.945313 221.371094 C 308.316406 220.292969 307.871094 219.03125 307.53125 217.714844 C 311.34375 204.84375 315.378906 193.511719 318.894531 183.277344 L 326.585938 168.300781 C 331.945313 157.382813 328.957031 150.925781 326.726563 147.769531 C 323.992188 144.105469 319.269531 142.621094 314.84375 143.578125 L 271.070313 152.992188 C 265.679688 154.101563 258.46875 151.746094 254.820313 147.878906 C 246.910156 139.324219 238.996094 130.769531 231.238281 122.167969 C 225.355469 115.648438 219.785156 107.507813 209.5625 110.382813 C 199.796875 114.125 200.183594 123.984375 199.203125 132.773438 C 197.957031 144.359375 196.714844 155.941406 195.625 167.476563 C 195.054688 172.914063 190.671875 179.105469 185.636719 181.277344 L 144.894531 199.847656 C 140.773438 201.71875 138.019531 205.679688 137.859375 210.300781 C 137.925781 213.09375 138.761719 217.5 143.265625 221.828125 L 138.269531 223.296875 C 140.675781 223.339844 143.035156 223.445313 145.367188 223.589844 C 146.746094 224.648438 148.292969 225.695313 150.226563 226.691406 L 174.039063 238.273438 C 176.066406 239.296875 186.066406 244.957031 186.066406 244.957031 C 191.042969 247.203125 195.605469 253.308594 196.203125 258.699219 L 200.597656 298.039063 C 202.464844 304.195313 205.710938 307.351563 208.300781 309.035156 C 211.902344 311.226563 216.070313 311.539063 220.339844 310.125 C 224.15625 308.863281 227.308594 306.125 230.058594 303.691406 L 244.515625 291.625 L 244.625 291.53125 C 270.253906 333.515625 285.695313 354.539063 317.414063 450.03125 C 285.300781 352.53125 290.078125 327.597656 295.519531 277 Z M 308.476563 277.726563" style="stroke:none;fill-rule:nonzero;fill:rgb(95.974731%,69.023132%,31.158447%);fill-opacity:1;"></path>
</g>
<g clip-rule="nonzero" clip-path="url(#clip2)">
<path d="M 241.683594 285.691406 C 244.03125 283.734375 247.558594 284.28125 249.203125 286.855469 L 250.066406 288.210938 C 252.21875 291.738281 254.296875 295.113281 256.320313 298.398438 C 263.191406 309.550781 269.460938 319.738281 275.734375 331.160156 C 278.261719 335.769531 285.25 333.9375 285.222656 328.683594 C 285.140625 313.328125 286.671875 299.332031 288.449219 283.09375 L 289.3125 275.082031 C 289.605469 272.402344 291.945313 270.417969 294.636719 270.570313 L 309.019531 271.378906 C 311.878906 271.621094 315.4375 271.921875 318.113281 271.042969 C 320.550781 270.234375 322.339844 268.660156 323.285156 266.484375 C 324.019531 264.476563 323.996094 261.84375 323.117188 258.882813 C 323 258.484375 322.820313 258.09375 322.613281 257.730469 L 303.429688 224.558594 C 302.578125 223.105469 301.898438 221.378906 301.363281 219.3125 L 300.921875 217.597656 L 301.421875 215.90625 C 304.703125 204.835938 308.179688 194.773438 311.253906 185.898438 L 313.117188 180.679688 C 313.195313 180.472656 313.28125 180.269531 313.382813 180.070313 L 320.917969 165.390625 C 325.207031 156.652344 322.433594 152.734375 321.527344 151.449219 C 320.464844 150.035156 318.335938 149.339844 316.191406 149.804688 L 272.410156 159.222656 C 264.914063 160.765625 255.386719 157.761719 250.183594 152.25 L 249.914063 151.960938 C 242.0625 143.46875 234.210938 134.976563 226.507813 126.433594 C 225.851563 125.707031 225.195313 124.953125 224.535156 124.199219 C 218.960938 117.824219 216.164063 115.277344 211.570313 116.441406 C 207.371094 118.1875 206.625 121.832031 205.867188 130.140625 C 205.761719 131.261719 205.660156 132.378906 205.535156 133.484375 C 204.296875 145.011719 203.054688 156.570313 201.96875 168.074219 C 201.144531 175.914063 195.214844 184.082031 188.164063 187.128906 L 147.535156 205.644531 C 145.59375 206.527344 144.371094 208.277344 144.234375 210.34375 C 144.347656 212.859375 145.476563 215.117188 147.683594 217.234375 L 149.238281 218.53125 C 150.582031 219.558594 151.78125 220.328125 153.136719 221.023438 L 176.824219 232.546875 C 178.894531 233.585938 187.234375 238.296875 188.980469 239.285156 C 195.902344 242.554688 201.707031 250.535156 202.539063 257.992188 L 206.855469 296.710938 C 207.921875 299.917969 209.574219 302.265625 211.769531 303.691406 C 213.550781 304.773438 215.75 304.9375 218.335938 304.078125 C 221.015625 303.191406 223.6875 300.824219 225.835938 298.921875 Z M 316.164063 450.457031 C 313.511719 451.332031 310.648438 449.878906 309.761719 447.230469 C 281.996094 364.382813 267.378906 340.65625 245.46875 305.082031 C 244.671875 303.785156 243.867188 302.476563 243.046875 301.148438 L 234.140625 308.582031 C 231.421875 310.996094 227.503906 314.464844 222.339844 316.171875 C 216.261719 318.1875 210.101563 317.585938 204.988281 314.476563 C 199.925781 311.191406 196.453125 306.320313 194.5 299.894531 L 194.261719 298.75 L 189.871094 259.40625 C 189.527344 256.296875 186.402344 252.097656 183.449219 250.765625 L 182.929688 250.5 C 178.964844 248.257813 172.558594 244.664063 171.175781 243.96875 L 147.4375 232.421875 C 146.335938 231.855469 145.3125 231.269531 144.3125 230.632813 C 143.53125 230.132813 142.648438 229.820313 141.722656 229.777344 C 140.542969 229.726563 139.351563 229.6875 138.152344 229.667969 L 129.625 229.507813 C 123.828125 229.402344 122.730469 221.214844 128.292969 219.582031 C 130.746094 218.863281 132.320313 216.421875 131.851563 213.910156 C 131.640625 212.777344 131.519531 211.625 131.492188 210.457031 L 131.484375 210.269531 L 131.492188 210.082031 C 131.734375 203.101563 135.855469 196.957031 142.253906 194.046875 L 182.996094 175.484375 C 185.953125 174.203125 188.957031 170.015625 189.289063 166.8125 C 190.378906 155.316406 191.617188 143.703125 192.867188 132.09375 C 192.984375 131.046875 193.078125 130.011719 193.175781 128.972656 C 193.945313 120.605469 194.996094 109.140625 207.285156 104.433594 L 207.839844 104.25 C 220.808594 100.601563 228.511719 109.390625 234.128906 115.8125 C 234.742188 116.515625 235.355469 117.214844 235.96875 117.894531 C 243.636719 126.402344 251.457031 134.855469 259.269531 143.308594 C 261.628906 145.816406 266.660156 147.402344 269.785156 146.75 L 313.503906 137.347656 C 320.5 135.832031 327.710938 138.429688 331.832031 143.960938 C 335.601563 149.28125 338.648438 158.183594 332.304688 171.109375 L 324.9375 185.460938 C 324.828125 185.675781 324.730469 185.898438 324.652344 186.125 L 323.296875 190.0625 C 320.445313 198.304688 317.238281 207.582031 314.203125 217.652344 C 314.292969 217.871094 314.375 218.03125 314.445313 218.152344 L 334.464844 252.972656 C 334.652344 253.296875 334.8125 253.644531 334.929688 253.996094 C 336.988281 260.046875 337.046875 266 335.097656 271.246094 C 332.570313 277.082031 328.007813 281.1875 322.117188 283.140625 C 317.003906 284.835938 311.835938 284.410156 308.027344 284.082031 L 301.203125 283.699219 L 301.117188 284.480469 C 296.136719 329.972656 293.351563 355.394531 321.886719 443.21875 C 322.75 445.871094 321.324219 448.746094 318.675781 449.625 Z M 316.164063 450.457031" style="stroke:none;fill-rule:nonzero;fill:rgb(43.362427%,18.260193%,15.510559%);fill-opacity:1;"></path>
</g>
<path d="M 308.902344 87 L 119.351563 140.5625 C 104.019531 144.894531 89.558594 135.882813 89.878906 122.394531 C 90.964844 76.417969 128.085938 32.179688 182.773438 16.726563 C 240.554688 0.398438 298.441406 21.714844 321.179688 64.894531 C 325.628906 73.335938 319.824219 83.914063 308.902344 87" style="stroke:none;fill-rule:nonzero;fill:rgb(93.026733%,46.624756%,21.981812%);fill-opacity:1;"></path>
<path d="M 221.859375 0.8125 L 221.851563 0.8125 C 207.839844 0.8125 193.738281 2.792969 179.9375 6.691406 C 121.992188 23.066406 80.671875 70.542969 79.453125 122.152344 C 79.273438 129.738281 82.117188 136.925781 87.457031 142.394531 C 93.472656 148.554688 102.265625 152.085938 111.578125 152.085938 C 115.121094 152.085938 118.691406 151.585938 122.1875 150.59375 L 311.738281 97.035156 C 320.644531 94.519531 327.695313 88.542969 331.085938 80.640625 C 333.988281 73.875 333.742188 66.367188 330.40625 60.035156 C 311.171875 23.503906 269.578125 0.8125 221.859375 0.8125 M 221.851563 11.242188 C 265.101563 11.242188 303.621094 31.546875 321.179688 64.894531 C 325.628906 73.335938 319.824219 83.914063 308.902344 87 L 119.351563 140.5625 C 116.714844 141.308594 114.097656 141.65625 111.578125 141.65625 C 99.476563 141.65625 89.613281 133.5625 89.878906 122.394531 C 90.964844 76.417969 128.085938 32.179688 182.773438 16.726563 C 195.933594 13.007813 209.101563 11.242188 221.851563 11.242188" style="stroke:none;fill-rule:nonzero;fill:rgb(45.843506%,16.220093%,13.33313%);fill-opacity:1;"></path>
<path d="M 320.332031 114.011719 L 130.78125 167.574219 C 115.449219 171.90625 109.457031 185.183594 114.648438 196.628906 C 123.964844 218.65625 146.753906 216.324219 236.375 191 C 325.992188 165.679688 344.886719 154.957031 341.996094 125.125 C 341.585938 116.277344 331.25 110.925781 320.332031 114.011719" style="stroke:none;fill-rule:nonzero;fill:rgb(93.026733%,46.624756%,21.981812%);fill-opacity:1;"></path>
<path d="M 326.550781 102.703125 C 323.53125 102.703125 320.484375 103.132813 317.496094 103.976563 L 127.945313 157.535156 C 117.347656 160.53125 109.25 167.042969 105.152344 175.871094 C 101.460938 183.816406 101.445313 192.664063 105.097656 200.808594 C 111.292969 215.351563 122.722656 222.125 141.058594 222.125 C 160.730469 222.125 191.941406 214.390625 239.210938 201.035156 C 326.015625 176.507813 356.148438 164.324219 352.398438 124.347656 C 351.65625 111.988281 340.601563 102.703125 326.550781 102.703125 M 326.550781 113.132813 C 334.886719 113.132813 341.664063 117.992188 341.996094 125.121094 C 344.882813 154.957031 325.992188 165.679688 236.375 191 C 187.800781 204.726563 158.863281 211.695313 141.058594 211.695313 C 126.011719 211.695313 118.917969 206.71875 114.652344 196.628906 C 109.457031 185.183594 115.449219 171.90625 130.78125 167.574219 L 320.332031 114.011719 C 322.449219 113.414063 324.542969 113.132813 326.550781 113.132813" style="stroke:none;fill-rule:nonzero;fill:rgb(45.843506%,16.220093%,13.33313%);fill-opacity:1;"></path>
<path d="M 327.421875 108.40625 L 118.214844 167.519531 C 116.796875 167.921875 115.308594 167.089844 114.90625 165.667969 L 110.027344 148.402344 C 109.628906 146.984375 110.460938 145.492188 111.878906 145.09375 L 321.085938 85.976563 C 322.503906 85.578125 323.992188 86.410156 324.394531 87.828125 L 329.273438 105.097656 C 329.671875 106.515625 328.839844 108.003906 327.421875 108.40625" style="stroke:none;fill-rule:nonzero;fill:rgb(40.103149%,16.725159%,13.616943%);fill-opacity:1;"></path>
<path d="M 235.460938 127.660156 L 134.234375 156.261719 C 130.890625 157.207031 127.378906 155.242188 126.433594 151.898438 C 125.488281 148.554688 127.453125 145.042969 130.796875 144.097656 L 232.023438 115.496094 C 235.367188 114.550781 238.878906 116.515625 239.824219 119.859375 C 240.769531 123.203125 238.804688 126.714844 235.460938 127.660156" style="stroke:none;fill-rule:nonzero;fill:rgb(61.763%,24.885559%,22.0047%);fill-opacity:1;"></path>
<path d="M 298.910156 89.324219 C 306.945313 71.917969 281.222656 5.824219 182.773438 16.726563 C 240.554688 0.398438 295.003906 19.769531 321.179688 64.894531 C 327.34375 78.867188 312.710938 89.136719 298.910156 89.324219" style="stroke:none;fill-rule:nonzero;fill:rgb(92.959595%,32.427979%,21.025085%);fill-opacity:1;"></path>
<path d="M 142.730469 133.84375 L 162.710938 143.664063 C 167.988281 146.257813 174.8125 144.332031 177.953125 139.359375 L 192.65625 119.738281 Z M 142.730469 133.84375" style="stroke:none;fill-rule:nonzero;fill:rgb(93.153381%,79.582214%,21.890259%);fill-opacity:1;"></path>
<path d="M 142.730469 133.84375 L 150.816406 137.800781 L 186.863281 127.738281 L 192.65625 119.738281 Z M 142.730469 133.84375" style="stroke:none;fill-rule:nonzero;fill:rgb(81.071472%,69.181824%,19.20166%);fill-opacity:1;"></path>
<path d="M 320.332031 114.011719 C 320.332031 114.011719 344.398438 160.476563 236.375 191 C 325.992188 165.679688 344.886719 154.957031 341.996094 125.125 C 341.585938 116.277344 331.25 110.925781 320.332031 114.011719" style="stroke:none;fill-rule:nonzero;fill:rgb(92.959595%,32.427979%,21.025085%);fill-opacity:1;"></path>
<path d="M 149.214844 54.589844 C 147.597656 54.589844 146 53.839844 144.984375 52.425781 C 143.296875 50.089844 143.824219 46.832031 146.160156 45.144531 C 154.058594 39.449219 160.671875 36.230469 169.75 33.664063 C 172.527344 32.878906 175.402344 34.492188 176.1875 37.261719 C 176.96875 40.03125 175.359375 42.914063 172.585938 43.695313 C 164.683594 45.933594 159.171875 48.617188 152.261719 53.601563 C 151.339844 54.265625 150.273438 54.589844 149.214844 54.589844" style="stroke:none;fill-rule:nonzero;fill:rgb(97.135925%,85.003662%,45.758057%);fill-opacity:1;"></path>
<path d="M 109.011719 124.183594 C 106.175781 124.183594 103.851563 121.914063 103.800781 119.070313 C 103.304688 92.902344 112.652344 72.582031 132.382813 56.945313 C 134.644531 55.15625 137.917969 55.539063 139.710938 57.792969 C 141.496094 60.050781 141.117188 63.332031 138.859375 65.121094 C 121.617188 78.78125 113.789063 95.863281 114.226563 118.875 C 114.28125 121.75 111.992188 124.128906 109.113281 124.183594 C 109.078125 124.183594 109.046875 124.183594 109.011719 124.183594" style="stroke:none;fill-rule:nonzero;fill:rgb(97.135925%,85.003662%,45.758057%);fill-opacity:1;"></path>
<path d="M 467.289063 113.53125 C 466.703125 111.714844 465.320313 110.535156 463.136719 109.988281 C 460.957031 109.4375 458.238281 109.6875 454.988281 110.738281 C 452.488281 111.546875 449.945313 113.433594 447.355469 116.398438 C 444.761719 119.367188 442.734375 122.714844 441.269531 126.445313 L 441.109375 123.238281 C 440.125 120.96875 438.941406 119.242188 437.558594 118.0625 C 436.171875 116.878906 434.15625 116.714844 431.511719 117.570313 C 428.558594 118.523438 426.332031 119.515625 424.828125 120.542969 C 423.320313 121.574219 422.691406 122.464844 422.9375 123.222656 C 423.03125 123.527344 423.230469 123.753906 423.53125 123.90625 L 427.46875 126.394531 C 427.582031 130.113281 428.144531 138.703125 429.148438 152.160156 L 430.703125 175.589844 C 431.265625 177.328125 432.199219 178.277344 433.503906 178.445313 C 434.8125 178.605469 436.710938 178.285156 439.207031 177.476563 C 441.402344 176.769531 442.921875 175.984375 443.773438 175.125 C 444.621094 174.265625 444.964844 173.132813 444.804688 171.726563 C 444.640625 170.316406 444.523438 169.371094 444.453125 168.894531 L 442.566406 140.5625 C 445.433594 132.617188 449.617188 126.839844 455.136719 123.21875 L 455.660156 127.183594 C 455.90625 127.941406 456.355469 128.421875 457.007813 128.628906 C 457.65625 128.839844 458.738281 128.699219 460.253906 128.207031 C 461.792969 127.542969 463.203125 126.359375 464.488281 124.648438 C 465.773438 122.9375 466.691406 121.050781 467.238281 119 C 467.785156 116.941406 467.804688 115.117188 467.289063 113.53125 M 390.128906 160.128906 C 394.945313 158.492188 399.601563 155.964844 404.09375 152.546875 C 408.585938 149.136719 410.113281 145.199219 408.671875 140.734375 C 408.328125 139.675781 407.574219 139.023438 406.410156 138.769531 C 405.242188 138.523438 404.09375 138.578125 402.957031 138.945313 C 400.765625 139.65625 398.738281 141.207031 396.882813 143.601563 C 395.023438 146 393.496094 148.707031 392.300781 151.722656 C 391.101563 154.742188 390.378906 157.542969 390.128906 160.128906 M 428.929688 163.882813 C 428.878906 166.574219 427.929688 169.578125 426.074219 172.886719 C 424.21875 176.199219 421.527344 179.304688 417.996094 182.199219 C 414.460938 185.09375 410.273438 187.324219 405.433594 188.890625 C 397.945313 191.308594 392.003906 191.597656 387.609375 189.757813 C 383.214844 187.921875 380.226563 184.542969 378.636719 179.628906 C 376.269531 172.292969 375.621094 165.128906 376.707031 158.136719 C 377.789063 151.148438 380.460938 145.066406 384.71875 139.886719 C 388.976563 134.714844 394.550781 131.015625 401.433594 128.789063 C 405.742188 127.398438 409.746094 127.441406 413.4375 128.921875 C 417.132813 130.402344 419.746094 133.523438 421.285156 138.289063 C 422.925781 143.355469 422.5625 147.859375 420.199219 151.792969 C 417.839844 155.734375 414.230469 159.171875 409.375 162.117188 C 404.523438 165.066406 398.25 168.199219 390.550781 171.519531 C 390.644531 172.578125 390.90625 173.785156 391.347656 175.148438 C 392.03125 177.265625 393.464844 178.597656 395.644531 179.144531 C 397.828125 179.695313 400.542969 179.445313 403.796875 178.394531 C 406.140625 177.636719 408.722656 176.257813 411.542969 174.257813 C 414.367188 172.265625 416.242188 169.863281 417.175781 167.054688 C 417.742188 165.453125 418.5625 164.058594 419.644531 162.875 C 420.722656 161.691406 421.90625 160.890625 423.191406 160.476563 C 424.402344 160.085938 425.53125 160.15625 426.582031 160.695313 C 427.632813 161.234375 428.417969 162.296875 428.929688 163.882813 M 359.621094 185.144531 C 359.386719 183.632813 359.046875 179.359375 358.609375 172.316406 C 358.546875 170.832031 358.445313 168.839844 358.308594 166.335938 C 358.164063 163.832031 358.003906 161.652344 357.820313 159.789063 C 356.953125 158.402344 355.699219 157.675781 354.050781 157.625 C 352.40625 157.574219 350.941406 157.75 349.652344 158.167969 C 346.628906 159.144531 344.015625 161.453125 341.804688 165.089844 C 339.597656 168.726563 338.125 172.773438 337.394531 177.226563 C 336.660156 181.679688 336.78125 185.421875 337.761719 188.445313 C 338.320313 190.1875 339.453125 192.011719 341.160156 193.925781 C 342.859375 195.839844 344.242188 196.625 345.304688 196.28125 C 347.042969 195.722656 349.589844 194.167969 352.945313 191.621094 C 356.300781 189.078125 358.523438 186.917969 359.621094 185.144531 M 371.792969 169.6875 C 373.082031 182.214844 373.949219 191.75 374.390625 198.289063 C 374.828125 205.332031 374.121094 211.09375 372.269531 215.574219 C 370.417969 220.058594 367.777344 223.519531 364.351563 225.964844 C 360.917969 228.40625 356.632813 230.460938 351.492188 232.121094 C 349.523438 232.757813 347.210938 233.023438 344.546875 232.925781 C 341.882813 232.824219 339.472656 232.285156 337.320313 231.3125 C 335.167969 230.332031 333.8125 228.976563 333.25 227.238281 C 332.714844 225.574219 332.722656 224.109375 333.269531 222.84375 C 333.824219 221.582031 334.972656 220.667969 336.710938 220.105469 C 337.464844 219.863281 338.519531 220.148438 339.871094 220.964844 C 341.492188 221.863281 343.082031 222.453125 344.640625 222.746094 C 346.195313 223.035156 348.261719 222.765625 350.832031 221.9375 C 354.992188 220.59375 357.984375 217.703125 359.8125 213.273438 C 361.636719 208.839844 361.964844 203.261719 360.796875 196.539063 C 356.421875 202.128906 351.699219 205.742188 346.632813 207.378906 C 343.53125 208.382813 340.445313 208.269531 337.378906 207.046875 C 334.308594 205.828125 331.617188 203.898438 329.308594 201.261719 C 326.992188 198.625 325.375 195.871094 324.445313 192.996094 C 323.101563 188.835938 322.816406 183.6875 323.589844 177.550781 C 324.363281 171.410156 326.59375 165.640625 330.273438 160.230469 C 333.957031 154.824219 339.203125 151.019531 346.011719 148.820313 C 350.925781 147.234375 355.792969 146.601563 360.617188 146.921875 C 365.441406 147.242188 368.5 149.40625 369.796875 153.417969 C 370.113281 154.398438 370.28125 155.179688 370.300781 155.757813 C 370.828125 161.019531 371.324219 165.660156 371.792969 169.6875 M 325.816406 159.226563 C 325.230469 157.410156 323.847656 156.230469 321.664063 155.683594 C 319.484375 155.132813 316.765625 155.382813 313.515625 156.433594 C 311.019531 157.242188 308.476563 159.128906 305.886719 162.09375 C 303.289063 165.0625 301.261719 168.410156 299.792969 172.140625 L 298.992188 165.007813 C 298.601563 163.800781 297.890625 162.945313 296.851563 162.445313 C 295.8125 161.945313 293.96875 162.121094 291.320313 162.976563 C 289.355469 163.613281 287.890625 165.027344 286.929688 167.214844 C 285.964844 169.40625 285.785156 173.371094 286.382813 179.105469 C 286.542969 183.230469 287.03125 190.296875 287.84375 200.308594 C 288.703125 213.3125 289.164063 220.304688 289.230469 221.285156 C 289.792969 223.027344 290.726563 223.976563 292.03125 224.140625 C 293.339844 224.300781 295.238281 223.980469 297.734375 223.171875 C 299.929688 222.464844 301.449219 221.679688 302.300781 220.824219 C 303.148438 219.960938 303.492188 218.828125 303.332031 217.421875 C 303.167969 216.011719 303.050781 215.066406 302.980469 214.589844 L 301.394531 190.671875 C 302.117188 185.675781 304.105469 180.898438 307.351563 176.339844 C 310.601563 171.785156 314.203125 168.660156 318.167969 166.960938 C 320.816406 165.855469 322.863281 164.628906 324.308594 163.285156 C 325.753906 161.941406 326.257813 160.589844 325.816406 159.226563 M 277.449219 175.101563 C 277.398438 174.699219 277.378906 174.183594 277.386719 173.554688 C 277.390625 172.925781 277.335938 172.425781 277.214844 172.046875 C 276.433594 169.625 274.035156 169.0625 270.027344 170.359375 C 267.90625 171.042969 266.386719 171.765625 265.464844 172.519531 C 264.539063 173.28125 263.996094 174.121094 263.839844 175.050781 C 263.679688 175.976563 263.640625 177.347656 263.722656 179.15625 C 263.828125 181.296875 264.308594 188.992188 265.167969 202.246094 L 265.917969 214.65625 C 264.714844 217.132813 262.824219 219.5625 260.25 221.9375 C 257.679688 224.316406 255.179688 225.894531 252.761719 226.675781 C 250.945313 227.261719 249.464844 227.199219 248.3125 226.484375 C 247.164063 225.769531 246.332031 224.617188 245.820313 223.027344 C 245.527344 222.121094 245.347656 221.175781 245.28125 220.195313 L 243.0625 187.335938 C 242.953125 185.199219 242.753906 183.675781 242.460938 182.769531 C 241.753906 180.574219 239.433594 180.113281 235.5 181.382813 C 232.851563 182.238281 231.070313 183.25 230.15625 184.425781 C 229.238281 185.597656 228.824219 187.089844 228.90625 188.902344 L 231.089844 221.644531 C 231.222656 223.609375 231.535156 225.347656 232.023438 226.859375 C 234 232.984375 236.867188 236.757813 240.625 238.175781 C 244.382813 239.59375 248.453125 239.59375 252.84375 238.175781 C 255.941406 237.171875 258.53125 235.691406 260.613281 233.722656 C 262.691406 231.757813 264.625 229.152344 266.417969 225.898438 L 267.128906 230.425781 C 267.886719 232.773438 270.871094 233.101563 276.09375 231.417969 C 277.832031 230.855469 279.152344 230.15625 280.054688 229.324219 C 280.953125 228.488281 281.347656 227.382813 281.234375 226 C 280.726563 221.070313 279.929688 210.71875 278.847656 194.945313 Z M 208.367188 224.601563 C 207.414063 221.652344 205.796875 219.167969 203.515625 217.148438 C 201.234375 215.128906 198.578125 214.605469 195.554688 215.582031 C 192.304688 216.632813 188.175781 218.46875 183.175781 221.085938 C 183.332031 228.550781 183.679688 237.003906 184.222656 246.433594 C 186.902344 247.238281 189.832031 247.125 193.007813 246.101563 C 196.414063 245 199.476563 243.367188 202.199219 241.191406 C 204.917969 239.015625 206.878906 236.484375 208.074219 233.589844 C 209.273438 230.699219 209.367188 227.703125 208.367188 224.601563 M 181.46875 209.988281 L 183.136719 209.324219 C 188.660156 207.035156 193.453125 204.089844 197.507813 200.484375 C 201.5625 196.878906 203.050781 193.410156 201.976563 190.082031 C 201.171875 187.585938 199.761719 185.746094 197.75 184.558594 C 195.738281 183.371094 193.027344 183.324219 189.625 184.421875 C 186.449219 185.449219 183.144531 186.726563 179.710938 188.253906 C 179.921875 189.941406 180.066406 191.9375 180.144531 194.25 C 180.328125 196.113281 180.511719 198.351563 180.6875 200.96875 C 180.863281 203.585938 181.121094 206.589844 181.46875 209.988281 M 223.164063 218.445313 C 224.996094 224.117188 224.972656 229.535156 223.089844 234.695313 C 221.207031 239.855469 218.015625 244.332031 213.519531 248.121094 C 209.019531 251.910156 203.859375 254.746094 198.039063 256.628906 C 194.785156 257.679688 191.164063 258.367188 187.179688 258.695313 C 183.191406 259.023438 179.519531 258.582031 176.164063 257.367188 C 172.808594 256.15625 170.605469 253.921875 169.554688 250.667969 C 169.210938 249.613281 168.992188 248.554688 168.902344 247.496094 L 165.375 197.015625 C 162.136719 199.652344 160.238281 202.058594 159.691406 204.238281 C 156.539063 202.503906 154.625 200.574219 153.941406 198.453125 C 153.402344 196.792969 153.496094 194.882813 154.21875 192.726563 C 156.914063 189.433594 161.421875 185.996094 167.738281 182.410156 C 174.054688 178.824219 181.109375 175.773438 188.898438 173.257813 C 196.613281 170.765625 202.78125 170.464844 207.402344 172.355469 C 212.019531 174.246094 215.210938 177.914063 216.972656 183.359375 C 218.4375 187.898438 218.109375 191.929688 215.992188 195.453125 C 213.871094 198.976563 210.359375 202.324219 205.453125 205.496094 C 210.714844 204.71875 214.652344 205.660156 217.265625 208.320313 C 219.878906 210.984375 221.847656 214.359375 223.164063 218.445313 M 163.324219 247.292969 C 162.835938 245.78125 162.097656 244.914063 161.105469 244.691406 C 160.113281 244.46875 158.636719 244.671875 156.671875 245.308594 C 155.6875 245.625 154.9375 246.285156 154.429688 247.289063 C 153.914063 248.289063 153.332031 249.855469 152.6875 251.984375 C 151.804688 254.941406 150.839844 257.320313 149.792969 259.121094 C 148.746094 260.921875 147.085938 262.1875 144.820313 262.917969 C 143.152344 263.457031 141.703125 263.359375 140.464844 262.632813 C 139.226563 261.90625 138.328125 260.671875 137.769531 258.933594 L 135.679688 228.035156 L 151.050781 221.316406 C 152.261719 220.671875 153.25 219.664063 154.019531 218.289063 C 154.785156 216.914063 154.960938 215.585938 154.546875 214.296875 C 153.472656 210.96875 151.496094 209.769531 148.625 210.699219 C 147.1875 211.160156 145.242188 211.9375 142.796875 213.019531 C 140.347656 214.101563 137.707031 215.308594 134.882813 216.640625 L 133.46875 198.300781 C 133.003906 197.117188 132.09375 196.242188 130.742188 195.675781 C 129.386719 195.109375 127.957031 195.074219 126.445313 195.5625 C 125.082031 196 123.804688 197.019531 122.605469 198.617188 C 121.410156 200.214844 120.75 202.117188 120.632813 204.328125 L 122.125 222.140625 L 119.167969 223.46875 C 117.277344 224.332031 115.6875 225.09375 114.398438 225.761719 C 113.109375 226.425781 112.429688 226.898438 112.351563 227.175781 C 111.601563 229.507813 111.527344 231.617188 112.140625 233.507813 C 112.457031 234.492188 112.953125 235.25 113.625 235.78125 C 114.300781 236.316406 115.09375 236.4375 116 236.144531 L 122.738281 233.339844 L 123.738281 247.300781 C 123.972656 251.652344 124.214844 255.375 124.464844 258.46875 C 124.707031 261.5625 124.941406 263.449219 125.164063 264.128906 C 126.679688 268.820313 129.167969 272.003906 132.636719 273.683594 C 136.097656 275.363281 140.441406 275.359375 145.660156 273.671875 C 150.878906 271.988281 155.097656 269.078125 158.316406 264.949219 C 161.535156 260.820313 163.429688 256.53125 163.996094 252.089844 C 164.078125 251.5625 164.039063 250.800781 163.886719 249.808594 C 163.730469 248.8125 163.542969 247.972656 163.324219 247.292969 M 79.164063 260.570313 C 85.867188 255.734375 91.304688 251.492188 95.472656 247.847656 C 99.640625 244.207031 101.398438 241.363281 100.738281 239.320313 C 100.445313 238.410156 99.714844 237.832031 98.550781 237.585938 C 97.382813 237.335938 96.230469 237.390625 95.097656 237.757813 C 92.828125 238.492188 90.515625 240.199219 88.167969 242.878906 C 85.820313 245.558594 83.800781 248.550781 82.109375 251.851563 C 80.417969 255.152344 79.4375 258.0625 79.164063 260.570313 M 117.621094 264.4375 C 117.496094 267.152344 116.507813 270.164063 114.652344 273.476563 C 112.800781 276.789063 110.085938 279.902344 106.515625 282.808594 C 102.945313 285.714844 98.738281 287.953125 93.898438 289.515625 C 86.484375 291.910156 80.601563 292.179688 76.246094 290.332031 C 71.890625 288.480469 68.917969 285.097656 67.328125 280.179688 C 65.007813 272.996094 64.652344 265.757813 66.269531 258.472656 C 67.878906 251.1875 71.113281 244.773438 75.96875 239.238281 C 80.820313 233.707031 86.726563 229.8125 93.683594 227.566406 C 97.917969 226.199219 101.859375 226.242188 105.503906 227.695313 C 109.148438 229.148438 111.714844 232.183594 113.203125 236.796875 C 114.058594 239.445313 113.910156 241.894531 112.757813 244.144531 C 111.605469 246.398438 109.65625 248.699219 106.90625 251.046875 C 104.15625 253.398438 99.617188 256.929688 93.289063 261.648438 C 87.546875 265.839844 82.902344 269.304688 79.355469 272.035156 C 79.417969 273.269531 79.648438 274.492188 80.039063 275.699219 C 80.722656 277.816406 82.136719 279.15625 84.28125 279.714844 C 86.421875 280.277344 89.121094 280.03125 92.375 278.980469 C 94.417969 278.320313 96.625 277.148438 99.007813 275.460938 C 101.386719 273.773438 102.707031 272.175781 102.972656 270.671875 C 104.027344 265.152344 105.617188 262.050781 107.734375 261.367188 C 110.832031 260.367188 113.121094 260.273438 114.597656 261.089844 C 116.074219 261.910156 117.082031 263.023438 117.621094 264.4375 M 57.65625 242.085938 C 58.734375 255.769531 59.574219 267.945313 60.179688 278.605469 C 60.5 284.515625 59.167969 289.894531 56.183594 294.742188 C 53.195313 299.589844 48.339844 303.105469 41.609375 305.277344 C 36.085938 307.0625 31.382813 307.433594 27.496094 306.390625 C 23.609375 305.347656 20.578125 303.59375 18.402344 301.121094 C 16.226563 298.652344 14.6875 296.015625 13.78125 293.214844 C 12.367188 288.828125 11.882813 285.457031 12.328125 283.097656 C 12.78125 280.738281 14.363281 279.121094 17.089844 278.242188 C 19.734375 277.386719 21.929688 277.074219 23.675781 277.300781 C 25.421875 277.535156 26.476563 278.214844 26.84375 279.351563 C 27.089844 280.105469 26.871094 281.511719 26.199219 283.566406 C 25.476563 285.722656 25.238281 287.179688 25.480469 287.933594 C 26.703125 291.464844 28.3125 293.660156 30.304688 294.519531 C 32.292969 295.378906 34.6875 295.359375 37.484375 294.457031 C 39.453125 293.820313 41.105469 292.410156 42.445313 290.222656 C 43.785156 288.035156 44.339844 284.644531 44.105469 280.039063 L 41.367188 233.9375 C 36.71875 236.359375 32.917969 238.421875 29.960938 240.128906 C 28.277344 240.089844 26.863281 239.648438 25.714844 238.808594 C 24.566406 237.96875 23.746094 236.792969 23.257813 235.277344 C 22.550781 233.085938 23.464844 230.871094 25.996094 228.632813 C 31.582031 225.492188 35.667969 223.273438 38.257813 221.976563 C 40.847656 220.683594 43.527344 219.546875 46.300781 218.566406 C 48.34375 217.90625 50.210938 217.550781 51.910156 217.503906 C 53.605469 217.457031 54.675781 217.863281 55.121094 218.722656 C 55.730469 220.613281 56.574219 228.402344 57.65625 242.085938" style="stroke:none;fill-rule:nonzero;fill:rgb(95.153809%,81.472778%,23.597717%);fill-opacity:1;"></path>
<g clip-rule="nonzero" clip-path="url(#clip3)">
<path d="M 153.257813 233.628906 L 155.664063 232.574219 L 155.695313 232.972656 C 154.910156 233.144531 154.101563 233.363281 153.257813 233.628906 M 322.121094 217.976563 C 320.902344 220.777344 319.839844 225.296875 321.671875 230.976563 C 322.8125 234.5 325.574219 239.339844 332.289063 242.386719 C 335.886719 244.015625 339.851563 244.921875 344.085938 245.082031 C 345.367188 245.128906 346.613281 245.117188 347.800781 245.046875 C 350.445313 244.890625 352.945313 244.4375 355.230469 243.699219 C 361.53125 241.664063 366.972656 239.03125 371.40625 235.871094 C 376.714844 232.089844 380.785156 226.824219 383.511719 220.21875 C 385.636719 215.074219 386.683594 209.15625 386.683594 202.230469 C 389.671875 202.976563 392.910156 203.253906 396.347656 203.050781 C 400.320313 202.816406 404.511719 201.96875 409.171875 200.464844 C 415.445313 198.4375 421.003906 195.460938 425.703125 191.613281 C 426.542969 190.921875 427.355469 190.21875 428.128906 189.503906 C 429.339844 190 430.632813 190.34375 431.984375 190.511719 C 433.085938 190.652344 434.226563 190.683594 435.398438 190.613281 C 437.640625 190.480469 440.109375 189.972656 442.945313 189.054688 C 447.113281 187.710938 450.121094 186.003906 452.414063 183.6875 C 455.886719 180.171875 457.472656 175.4375 456.890625 170.347656 C 456.753906 169.15625 456.644531 168.261719 456.5625 167.664063 L 454.886719 142.472656 C 455.148438 141.878906 455.414063 141.304688 455.695313 140.753906 C 456.652344 140.882813 457.644531 140.921875 458.65625 140.859375 C 460.308594 140.761719 462.054688 140.410156 463.992188 139.785156 L 464.542969 139.605469 L 465.074219 139.378906 C 468.574219 137.867188 471.652344 135.371094 474.214844 131.957031 C 476.4375 129 478.042969 125.695313 478.996094 122.128906 C 480.152344 117.773438 480.105469 113.628906 478.867188 109.792969 C 476.988281 103.980469 472.335938 99.75 466.097656 98.1875 C 463.941406 97.644531 461.625 97.441406 459.21875 97.582031 C 456.714844 97.730469 454.03125 98.261719 451.246094 99.164063 C 447.449219 100.386719 443.921875 102.609375 440.535156 105.914063 C 438.328125 105.097656 435.914063 104.75 433.378906 104.902344 C 431.574219 105.007813 429.6875 105.375 427.769531 105.996094 C 423.667969 107.320313 420.457031 108.792969 417.960938 110.5 C 415.375 112.269531 413.664063 114.183594 412.5625 116.070313 C 410.335938 115.664063 408.0625 115.527344 405.75 115.664063 C 403.105469 115.820313 400.390625 116.339844 397.695313 117.214844 C 388.59375 120.152344 381.066406 125.179688 375.324219 132.15625 C 373.910156 133.875 372.625 135.675781 371.472656 137.546875 C 368.566406 135.980469 365.183594 135.035156 361.425781 134.78125 C 359.390625 134.644531 357.320313 134.640625 355.277344 134.761719 C 350.957031 135.015625 346.582031 135.851563 342.269531 137.246094 C 336.773438 139.019531 331.953125 141.613281 327.859375 144.992188 C 326.835938 144.539063 325.757813 144.167969 324.625 143.882813 C 322.46875 143.339844 320.152344 143.136719 317.746094 143.277344 C 315.242188 143.425781 312.5625 143.957031 309.773438 144.859375 C 306.347656 145.964844 303.140625 147.882813 300.054688 150.675781 C 298.253906 150.128906 296.316406 149.914063 294.265625 150.035156 C 292.242188 150.15625 290.054688 150.601563 287.582031 151.402344 C 283.820313 152.617188 280.609375 154.945313 278.222656 158.132813 C 276.429688 157.636719 274.5 157.429688 272.480469 157.550781 C 270.519531 157.664063 268.492188 158.066406 266.289063 158.78125 C 262.632813 159.960938 259.925781 161.332031 257.765625 163.097656 C 253.695313 166.449219 252.300781 170.332031 251.84375 173 C 251.765625 173.457031 251.703125 173.933594 251.652344 174.433594 C 248.605469 170.441406 243.667969 168.21875 238.035156 168.554688 C 236.0625 168.667969 234.011719 169.078125 231.761719 169.804688 C 229.332031 170.589844 227.222656 171.535156 225.417969 172.65625 C 222.242188 167.363281 217.699219 163.421875 212.007813 161.09375 C 207.941406 159.429688 203.328125 158.734375 198.308594 159.035156 C 194.285156 159.269531 189.859375 160.160156 185.160156 161.679688 C 176.625 164.4375 168.742188 167.851563 161.734375 171.832031 C 154.027344 176.203125 148.492188 180.519531 144.804688 185.019531 L 143.398438 186.742188 L 142.6875 188.851563 C 142.589844 189.136719 142.5 189.421875 142.417969 189.707031 C 140.636719 187.4375 138.257813 185.632813 135.445313 184.457031 C 132.875 183.382813 130.183594 182.921875 127.425781 183.085938 C 125.847656 183.179688 124.257813 183.480469 122.703125 183.984375 C 118.910156 185.210938 115.605469 187.675781 112.875 191.316406 C 110.210938 194.871094 108.734375 199.027344 108.484375 203.667969 L 108.4375 204.507813 L 108.507813 205.34375 L 109.292969 214.707031 C 109.128906 214.792969 108.96875 214.875 108.8125 214.953125 C 108.472656 215.128906 108.082031 215.332031 107.652344 215.574219 C 104.515625 214.632813 101.25 214.257813 97.917969 214.457031 C 95.292969 214.613281 92.613281 215.128906 89.945313 215.988281 C 81.804688 218.617188 74.691406 223.03125 68.757813 229.121094 C 67.8125 219.167969 67.238281 216.65625 66.695313 214.984375 L 66.386719 214.023438 L 65.921875 213.128906 C 64.667969 210.703125 60.757813 205.09375 51.574219 205.34375 C 51.292969 205.351563 51.011719 205.363281 50.726563 205.378906 C 48.136719 205.535156 45.386719 206.074219 42.558594 206.988281 L 42.402344 207.039063 L 42.246094 207.09375 C 39.019531 208.234375 35.84375 209.582031 32.816406 211.097656 C 30.019531 212.496094 25.839844 214.761719 20.035156 218.027344 L 18.90625 218.660156 L 17.9375 219.515625 C 9.125 227.3125 10.625 235.75 11.679688 239.015625 C 12.953125 242.960938 15.324219 246.285156 18.535156 248.628906 C 21.667969 250.925781 25.527344 252.195313 29.675781 252.292969 L 30.273438 252.304688 L 31.148438 267.066406 C 29.398438 266.152344 27.421875 265.527344 25.277344 265.242188 C 23.9375 265.066406 22.546875 265.023438 21.125 265.105469 C 18.691406 265.25 16.148438 265.757813 13.347656 266.664063 C 6.398438 268.910156 1.671875 274.066406 0.378906 280.8125 C -0.476563 285.332031 0.105469 290.453125 2.203125 296.953125 C 3.621094 301.339844 6 305.445313 9.273438 309.164063 C 13.050781 313.453125 18.125 316.472656 24.347656 318.140625 C 27.410156 318.960938 30.71875 319.277344 34.179688 319.070313 C 37.675781 318.863281 41.433594 318.117188 45.347656 316.855469 C 54.875 313.777344 62.007813 308.484375 66.539063 301.125 C 66.878906 300.574219 67.203125 300.019531 67.511719 299.460938 C 68.761719 300.242188 70.089844 300.933594 71.488281 301.527344 C 75.480469 303.222656 80.015625 303.933594 84.972656 303.640625 C 88.847656 303.414063 93.109375 302.554688 97.636719 301.089844 C 103.894531 299.070313 109.46875 296.09375 114.195313 292.242188 C 117.949219 289.1875 121.058594 285.855469 123.480469 282.300781 C 124.820313 283.292969 126.132813 284.050781 127.335938 284.632813 C 131.214844 286.515625 135.558594 287.328125 140.234375 287.050781 C 143.144531 286.878906 146.226563 286.273438 149.402344 285.25 C 156.953125 282.808594 163.179688 278.496094 167.910156 272.429688 C 168.960938 271.082031 169.914063 269.710938 170.769531 268.316406 C 171.183594 268.492188 171.601563 268.65625 172.03125 268.808594 C 176.722656 270.507813 181.820313 271.207031 187.175781 270.890625 C 187.503906 270.871094 187.839844 270.847656 188.171875 270.820313 C 193.078125 270.417969 197.652344 269.539063 201.777344 268.207031 C 209.082031 265.847656 215.667969 262.21875 221.359375 257.421875 C 225.179688 254.203125 228.34375 250.558594 230.816406 246.53125 C 232.507813 247.796875 234.347656 248.808594 236.335938 249.558594 C 240.128906 250.992188 244.148438 251.59375 248.277344 251.351563 C 251 251.1875 253.796875 250.652344 256.582031 249.753906 C 260.507813 248.484375 264.003906 246.644531 267 244.269531 C 268.511719 244.582031 270.171875 244.710938 271.980469 244.601563 C 274.347656 244.460938 276.914063 243.9375 279.832031 242.992188 C 283.308594 241.871094 286.082031 240.320313 288.316406 238.253906 C 289.015625 237.601563 289.648438 236.90625 290.210938 236.167969 C 290.3125 236.183594 290.414063 236.195313 290.515625 236.210938 C 291.617188 236.347656 292.757813 236.378906 293.925781 236.308594 C 296.167969 236.175781 298.636719 235.667969 301.476563 234.75 C 305.640625 233.40625 308.648438 231.699219 310.941406 229.386719 C 314.414063 225.867188 322.804688 216.417969 322.121094 217.976563 M 79.164063 260.570313 C 85.867188 255.734375 91.304688 251.492188 95.472656 247.847656 C 99.640625 244.207031 101.398438 241.363281 100.738281 239.320313 C 100.445313 238.410156 99.714844 237.832031 98.546875 237.585938 C 97.945313 237.457031 97.347656 237.410156 96.753906 237.445313 C 96.199219 237.476563 95.644531 237.582031 95.097656 237.757813 C 92.828125 238.492188 90.515625 240.199219 88.167969 242.878906 C 85.820313 245.5625 83.796875 248.550781 82.109375 251.851563 C 80.417969 255.152344 79.4375 258.0625 79.164063 260.570313 M 98.632813 226.601563 C 101.03125 226.460938 103.320313 226.824219 105.503906 227.695313 C 109.148438 229.148438 111.714844 232.183594 113.203125 236.796875 C 114.058594 239.445313 113.910156 241.894531 112.757813 244.144531 C 111.605469 246.398438 109.65625 248.699219 106.90625 251.046875 C 104.15625 253.398438 99.617188 256.929688 93.289063 261.648438 C 87.546875 265.839844 82.902344 269.304688 79.359375 272.035156 C 79.417969 273.269531 79.648438 274.492188 80.039063 275.699219 C 80.722656 277.816406 82.136719 279.15625 84.28125 279.714844 C 85.234375 279.964844 86.296875 280.054688 87.46875 279.988281 C 88.933594 279.898438 90.570313 279.566406 92.375 278.980469 C 94.417969 278.320313 96.628906 277.148438 99.003906 275.460938 C 101.382813 273.777344 102.707031 272.179688 102.972656 270.671875 C 104.027344 265.152344 105.617188 262.050781 107.734375 261.367188 C 109.207031 260.890625 110.496094 260.621094 111.601563 260.554688 C 112.824219 260.480469 113.824219 260.660156 114.597656 261.089844 C 116.074219 261.910156 117.082031 263.023438 117.621094 264.4375 C 117.496094 267.152344 116.507813 270.164063 114.652344 273.476563 C 112.796875 276.789063 110.085938 279.902344 106.515625 282.808594 C 102.945313 285.714844 98.738281 287.953125 93.898438 289.515625 C 90.332031 290.667969 87.117188 291.328125 84.257813 291.496094 C 81.175781 291.679688 78.503906 291.289063 76.246094 290.332031 C 71.886719 288.480469 68.917969 285.097656 67.328125 280.179688 C 65.007813 272.996094 64.652344 265.757813 66.269531 258.472656 C 67.878906 251.1875 71.113281 244.773438 75.96875 239.238281 C 80.820313 233.707031 86.722656 229.8125 93.683594 227.566406 C 95.382813 227.019531 97.03125 226.695313 98.632813 226.601563 M 51.445313 217.523438 C 51.601563 217.515625 51.753906 217.507813 51.910156 217.503906 C 53.605469 217.457031 54.675781 217.863281 55.121094 218.722656 C 55.730469 220.613281 56.574219 228.402344 57.65625 242.085938 C 58.734375 255.769531 59.574219 267.945313 60.179688 278.605469 C 60.503906 284.515625 59.167969 289.894531 56.183594 294.742188 C 53.195313 299.589844 48.339844 303.105469 41.609375 305.277344 C 38.660156 306.230469 35.945313 306.78125 33.460938 306.925781 C 31.296875 307.054688 29.304688 306.875 27.496094 306.390625 C 23.609375 305.347656 20.578125 303.59375 18.402344 301.121094 C 16.226563 298.652344 14.6875 296.015625 13.78125 293.214844 C 12.367188 288.832031 11.882813 285.457031 12.328125 283.097656 C 12.78125 280.738281 14.363281 279.121094 17.089844 278.242188 C 18.878906 277.660156 20.464844 277.332031 21.84375 277.25 C 22.5 277.210938 23.113281 277.230469 23.675781 277.304688 C 25.421875 277.535156 26.476563 278.214844 26.84375 279.351563 C 27.089844 280.105469 26.871094 281.511719 26.199219 283.566406 C 25.476563 285.722656 25.238281 287.179688 25.480469 287.933594 C 26.703125 291.464844 28.3125 293.660156 30.304688 294.519531 C 31.4375 295.011719 32.703125 295.214844 34.097656 295.132813 C 35.152344 295.070313 36.28125 294.84375 37.484375 294.457031 C 39.453125 293.820313 41.105469 292.410156 42.445313 290.222656 C 43.785156 288.035156 44.339844 284.644531 44.105469 280.039063 L 41.367188 233.9375 C 36.71875 236.359375 32.917969 238.421875 29.960938 240.128906 C 28.277344 240.089844 26.863281 239.648438 25.714844 238.808594 C 24.566406 237.96875 23.746094 236.792969 23.257813 235.277344 C 22.550781 233.085938 23.464844 230.871094 25.996094 228.632813 C 31.582031 225.492188 35.667969 223.273438 38.253906 221.976563 C 40.84375 220.683594 43.527344 219.546875 46.300781 218.5625 C 48.160156 217.964844 49.875 217.617188 51.445313 217.523438 M 128.144531 195.230469 C 129.039063 195.179688 129.90625 195.328125 130.742188 195.675781 C 132.09375 196.242188 133.003906 197.117188 133.46875 198.300781 L 134.882813 216.640625 C 137.707031 215.308594 140.347656 214.101563 142.796875 213.019531 C 145.242188 211.933594 147.1875 211.164063 148.625 210.699219 C 149.148438 210.527344 149.644531 210.429688 150.109375 210.402344 C 152.1875 210.277344 153.667969 211.578125 154.546875 214.296875 C 154.960938 215.585938 154.785156 216.914063 154.019531 218.289063 C 153.25 219.664063 152.261719 220.671875 151.050781 221.316406 L 135.679688 228.035156 L 137.769531 258.933594 C 138.332031 260.671875 139.226563 261.90625 140.464844 262.632813 C 141.265625 263.101563 142.15625 263.308594 143.132813 263.253906 C 143.667969 263.21875 144.230469 263.109375 144.820313 262.917969 C 147.085938 262.1875 148.746094 260.921875 149.792969 259.121094 C 150.839844 257.320313 151.804688 254.941406 152.6875 251.980469 C 153.335938 249.855469 153.914063 248.289063 154.425781 247.289063 C 154.9375 246.285156 155.6875 245.625 156.671875 245.308594 C 157.945313 244.898438 159.011719 244.667969 159.878906 244.613281 C 160.347656 244.585938 160.757813 244.613281 161.105469 244.691406 C 162.097656 244.914063 162.835938 245.78125 163.324219 247.292969 C 163.542969 247.972656 163.730469 248.8125 163.886719 249.808594 C 164.039063 250.800781 164.078125 251.5625 163.996094 252.089844 C 163.429688 256.53125 161.535156 260.820313 158.316406 264.949219 C 155.097656 269.078125 150.878906 271.988281 145.660156 273.671875 C 143.457031 274.382813 141.410156 274.796875 139.515625 274.90625 C 136.929688 275.0625 134.636719 274.652344 132.632813 273.683594 C 129.167969 272.003906 126.675781 268.820313 125.164063 264.128906 C 124.945313 263.449219 124.710938 261.5625 124.460938 258.46875 C 124.214844 255.375 123.972656 251.652344 123.738281 247.300781 L 122.738281 233.339844 L 116 236.144531 C 115.730469 236.230469 115.472656 236.28125 115.226563 236.296875 C 114.636719 236.332031 114.101563 236.160156 113.628906 235.78125 C 112.953125 235.25 112.457031 234.492188 112.140625 233.507813 C 111.527344 231.617188 111.597656 229.507813 112.347656 227.175781 C 112.425781 226.898438 113.113281 226.429688 114.398438 225.761719 C 115.6875 225.09375 117.277344 224.332031 119.171875 223.46875 L 122.125 222.140625 L 120.628906 204.328125 C 120.75 202.117188 121.410156 200.214844 122.605469 198.617188 C 123.804688 197.019531 125.082031 196 126.445313 195.5625 C 127.023438 195.375 127.589844 195.265625 128.144531 195.230469 M 273.199219 169.695313 C 275.328125 169.566406 276.667969 170.351563 277.214844 172.046875 C 277.335938 172.425781 277.390625 172.925781 277.386719 173.554688 C 277.378906 174.183594 277.402344 174.699219 277.449219 175.101563 L 278.84375 194.949219 C 279.929688 210.71875 280.726563 221.070313 281.234375 226 C 281.34375 227.382813 280.953125 228.488281 280.050781 229.324219 C 279.152344 230.15625 277.832031 230.855469 276.09375 231.417969 C 274.183594 232.03125 272.574219 232.378906 271.261719 232.457031 C 268.988281 232.59375 267.609375 231.914063 267.128906 230.429688 L 266.417969 225.898438 C 264.625 229.152344 262.691406 231.757813 260.613281 233.722656 C 258.53125 235.691406 255.945313 237.171875 252.839844 238.175781 C 251.027344 238.761719 249.265625 239.105469 247.554688 239.207031 C 245.136719 239.351563 242.828125 239.007813 240.625 238.175781 C 236.867188 236.757813 234 232.984375 232.023438 226.859375 C 231.535156 225.347656 231.222656 223.609375 231.089844 221.644531 L 228.90625 188.902344 C 228.824219 187.089844 229.238281 185.597656 230.15625 184.425781 C 231.070313 183.25 232.851563 182.238281 235.5 181.382813 C 236.746094 180.980469 237.832031 180.753906 238.753906 180.699219 C 240.742188 180.582031 241.980469 181.269531 242.460938 182.769531 C 242.753906 183.675781 242.953125 185.199219 243.0625 187.335938 L 245.28125 220.195313 C 245.347656 221.175781 245.527344 222.121094 245.820313 223.027344 C 246.332031 224.617188 247.164063 225.769531 248.3125 226.480469 C 249.027344 226.925781 249.867188 227.121094 250.835938 227.0625 C 251.429688 227.027344 252.070313 226.898438 252.761719 226.675781 C 255.179688 225.894531 257.675781 224.316406 260.25 221.9375 C 262.824219 219.5625 264.714844 217.132813 265.917969 214.65625 L 265.167969 202.246094 C 264.308594 188.992188 263.828125 181.296875 263.722656 179.15625 C 263.640625 177.347656 263.675781 175.976563 263.835938 175.050781 C 263.996094 174.121094 264.539063 173.28125 265.460938 172.519531 C 266.386719 171.761719 267.90625 171.042969 270.027344 170.355469 C 271.230469 169.96875 272.285156 169.75 273.199219 169.695313 M 188.730469 246.9375 C 190.105469 246.855469 191.527344 246.578125 193.007813 246.101563 C 196.414063 245 199.476563 243.367188 202.199219 241.1875 C 204.921875 239.015625 206.878906 236.484375 208.074219 233.589844 C 209.273438 230.699219 209.367188 227.703125 208.367188 224.601563 C 207.414063 221.652344 205.796875 219.167969 203.515625 217.148438 C 201.851563 215.671875 199.988281 215 197.925781 215.121094 C 197.164063 215.164063 196.375 215.320313 195.554688 215.582031 C 192.304688 216.632813 188.175781 218.46875 183.175781 221.085938 C 183.332031 228.554688 183.679688 237.003906 184.21875 246.433594 C 185.652344 246.863281 187.15625 247.03125 188.730469 246.9375 M 181.46875 209.988281 L 183.132813 209.324219 C 188.660156 207.035156 193.453125 204.089844 197.507813 200.484375 C 201.5625 196.878906 203.050781 193.410156 201.976563 190.082031 C 201.171875 187.585938 199.761719 185.746094 197.75 184.554688 C 196.554688 183.851563 195.121094 183.550781 193.4375 183.648438 C 192.28125 183.71875 191.011719 183.976563 189.625 184.421875 C 186.449219 185.449219 183.144531 186.726563 179.710938 188.253906 C 179.921875 189.9375 180.066406 191.9375 180.148438 194.25 C 180.328125 196.117188 180.507813 198.351563 180.6875 200.96875 C 180.863281 203.585938 181.125 206.589844 181.46875 209.988281 M 199.027344 171.175781 C 202.230469 170.988281 205.019531 171.378906 207.402344 172.355469 C 212.023438 174.246094 215.210938 177.914063 216.96875 183.359375 C 218.4375 187.898438 218.109375 191.929688 215.992188 195.453125 C 213.871094 198.976563 210.359375 202.328125 205.453125 205.496094 C 206.203125 205.386719 206.925781 205.308594 207.621094 205.269531 C 211.808594 205.019531 215.023438 206.039063 217.265625 208.320313 C 219.878906 210.984375 221.84375 214.359375 223.164063 218.445313 C 224.996094 224.117188 224.972656 229.535156 223.089844 234.695313 C 221.207031 239.855469 218.015625 244.332031 213.519531 248.121094 C 209.023438 251.910156 203.863281 254.746094 198.039063 256.628906 C 194.785156 257.679688 191.164063 258.367188 187.179688 258.695313 C 186.9375 258.714844 186.695313 258.730469 186.457031 258.746094 C 182.746094 258.964844 179.316406 258.507813 176.164063 257.367188 C 172.804688 256.15625 170.605469 253.921875 169.550781 250.667969 C 169.210938 249.613281 168.992188 248.554688 168.902344 247.496094 L 165.375 197.015625 C 162.136719 199.652344 160.238281 202.058594 159.691406 204.238281 C 156.542969 202.503906 154.625 200.574219 153.941406 198.457031 C 153.402344 196.792969 153.496094 194.882813 154.21875 192.726563 C 156.914063 189.433594 161.421875 185.996094 167.738281 182.410156 C 174.054688 178.824219 181.109375 175.773438 188.898438 173.257813 C 192.636719 172.046875 196.011719 171.355469 199.027344 171.175781 M 318.464844 155.421875 C 319.636719 155.355469 320.703125 155.4375 321.664063 155.683594 C 323.847656 156.230469 325.234375 157.414063 325.820313 159.226563 C 326.257813 160.589844 325.753906 161.941406 324.308594 163.285156 C 322.863281 164.628906 320.816406 165.851563 318.167969 166.960938 C 314.203125 168.660156 310.597656 171.785156 307.351563 176.339844 C 304.105469 180.898438 302.117188 185.675781 301.394531 190.671875 L 302.980469 214.589844 C 303.050781 215.066406 303.167969 216.011719 303.332031 217.421875 C 303.492188 218.828125 303.152344 219.960938 302.300781 220.824219 C 301.449219 221.679688 299.929688 222.464844 297.734375 223.171875 C 295.90625 223.765625 294.398438 224.09375 293.207031 224.164063 C 292.773438 224.191406 292.382813 224.183594 292.03125 224.136719 C 290.726563 223.972656 289.792969 223.027344 289.230469 221.285156 C 289.164063 220.304688 288.703125 213.3125 287.84375 200.308594 C 287.03125 190.296875 286.542969 183.230469 286.382813 179.105469 C 285.785156 173.371094 285.960938 169.40625 286.925781 167.214844 C 287.890625 165.027344 289.355469 163.613281 291.320313 162.976563 C 292.789063 162.503906 294.007813 162.238281 294.984375 162.179688 C 295.765625 162.132813 296.386719 162.222656 296.851563 162.445313 C 297.886719 162.945313 298.605469 163.800781 298.992188 165.011719 L 299.792969 172.140625 C 301.261719 168.410156 303.289063 165.0625 305.882813 162.09375 C 308.472656 159.128906 311.019531 157.242188 313.515625 156.433594 C 315.332031 155.847656 316.980469 155.511719 318.464844 155.421875 M 344.902344 196.359375 C 345.039063 196.351563 345.171875 196.324219 345.300781 196.285156 C 347.042969 195.722656 349.585938 194.167969 352.945313 191.621094 C 356.296875 189.078125 358.523438 186.917969 359.621094 185.144531 C 359.382813 183.632813 359.046875 179.359375 358.609375 172.316406 C 358.546875 170.832031 358.445313 168.839844 358.308594 166.335938 C 358.164063 163.835938 358.003906 161.652344 357.820313 159.789063 C 356.953125 158.402344 355.699219 157.675781 354.050781 157.625 C 353.542969 157.609375 353.054688 157.617188 352.578125 157.644531 C 351.519531 157.707031 350.542969 157.878906 349.652344 158.167969 C 346.628906 159.144531 344.011719 161.453125 341.804688 165.089844 C 339.597656 168.726563 338.125 172.773438 337.394531 177.226563 C 336.660156 181.679688 336.78125 185.421875 337.757813 188.445313 C 338.320313 190.1875 339.453125 192.011719 341.160156 193.925781 C 342.652344 195.605469 343.902344 196.417969 344.902344 196.359375 M 355.992188 146.90625 C 357.539063 146.8125 359.082031 146.820313 360.617188 146.921875 C 365.441406 147.242188 368.5 149.40625 369.796875 153.417969 C 370.113281 154.398438 370.28125 155.179688 370.300781 155.757813 C 370.828125 161.019531 371.324219 165.660156 371.792969 169.683594 C 373.082031 182.214844 373.949219 191.75 374.390625 198.289063 C 374.828125 205.332031 374.121094 211.09375 372.269531 215.574219 C 370.417969 220.058594 367.777344 223.519531 364.347656 225.964844 C 360.917969 228.40625 356.632813 230.460938 351.492188 232.121094 C 350.175781 232.546875 348.707031 232.804688 347.082031 232.902344 C 346.277344 232.949219 345.429688 232.957031 344.546875 232.925781 C 341.882813 232.824219 339.472656 232.285156 337.320313 231.3125 C 335.167969 230.332031 333.8125 228.976563 333.25 227.238281 C 332.710938 225.574219 332.722656 224.109375 333.273438 222.84375 C 333.824219 221.582031 334.96875 220.667969 336.710938 220.105469 C 336.847656 220.0625 336.992188 220.035156 337.152344 220.027344 C 337.859375 219.984375 338.765625 220.296875 339.867188 220.964844 C 341.492188 221.863281 343.082031 222.453125 344.640625 222.746094 C 345.203125 222.847656 345.828125 222.882813 346.523438 222.839844 C 347.753906 222.769531 349.1875 222.464844 350.832031 221.9375 C 354.992188 220.59375 357.984375 217.703125 359.8125 213.273438 C 361.636719 208.839844 361.964844 203.261719 360.796875 196.539063 C 356.421875 202.128906 351.699219 205.742188 346.632813 207.378906 C 345.488281 207.75 344.351563 207.964844 343.214844 208.035156 C 341.261719 208.148438 339.316406 207.820313 337.378906 207.046875 C 334.308594 205.828125 331.617188 203.898438 329.308594 201.261719 C 326.992188 198.625 325.375 195.871094 324.445313 192.996094 C 323.101563 188.835938 322.816406 183.6875 323.589844 177.550781 C 324.363281 171.410156 326.589844 165.636719 330.277344 160.230469 C 333.957031 154.824219 339.203125 151.019531 346.011719 148.820313 C 349.359375 147.738281 352.6875 147.101563 355.992188 146.90625 M 390.128906 160.128906 C 394.945313 158.492188 399.597656 155.964844 404.09375 152.546875 C 408.585938 149.136719 410.113281 145.199219 408.671875 140.734375 C 408.328125 139.675781 407.574219 139.019531 406.410156 138.769531 C 405.808594 138.640625 405.210938 138.59375 404.617188 138.628906 C 404.0625 138.664063 403.507813 138.769531 402.957031 138.945313 C 400.761719 139.65625 398.738281 141.207031 396.882813 143.601563 C 395.027344 146 393.496094 148.707031 392.300781 151.722656 C 391.101563 154.742188 390.378906 157.542969 390.128906 160.128906 M 406.46875 127.808594 C 408.902344 127.664063 411.226563 128.035156 413.441406 128.921875 C 417.128906 130.402344 419.746094 133.523438 421.285156 138.289063 C 422.925781 143.355469 422.5625 147.855469 420.199219 151.792969 C 417.839844 155.730469 414.230469 159.171875 409.375 162.117188 C 404.523438 165.0625 398.25 168.199219 390.550781 171.519531 C 390.640625 172.578125 390.90625 173.785156 391.347656 175.148438 C 392.03125 177.265625 393.464844 178.597656 395.648438 179.144531 C 396.609375 179.386719 397.675781 179.472656 398.847656 179.40625 C 400.328125 179.316406 401.980469 178.980469 403.796875 178.390625 C 406.140625 177.636719 408.722656 176.257813 411.542969 174.261719 C 414.367188 172.265625 416.242188 169.863281 417.171875 167.054688 C 417.742188 165.453125 418.566406 164.058594 419.644531 162.875 C 420.722656 161.691406 421.90625 160.890625 423.191406 160.476563 C 423.613281 160.339844 424.023438 160.261719 424.425781 160.238281 C 425.179688 160.191406 425.898438 160.34375 426.582031 160.695313 C 427.632813 161.230469 428.417969 162.296875 428.929688 163.882813 C 428.878906 166.574219 427.925781 169.578125 426.074219 172.886719 C 424.21875 176.203125 421.527344 179.304688 417.996094 182.199219 C 414.460938 185.09375 410.273438 187.324219 405.433594 188.886719 C 401.800781 190.0625 398.53125 190.734375 395.628906 190.90625 C 392.542969 191.089844 389.871094 190.707031 387.609375 189.757813 C 383.214844 187.921875 380.226563 184.542969 378.636719 179.628906 C 376.269531 172.292969 375.621094 165.128906 376.707031 158.136719 C 377.789063 151.148438 380.460938 145.066406 384.71875 139.886719 C 388.980469 134.714844 394.546875 131.011719 401.433594 128.789063 C 403.160156 128.230469 404.839844 127.90625 406.46875 127.808594 M 459.9375 109.726563 C 461.109375 109.660156 462.175781 109.746094 463.136719 109.988281 C 465.320313 110.535156 466.703125 111.714844 467.289063 113.53125 C 467.804688 115.121094 467.785156 116.941406 467.238281 119 C 466.691406 121.054688 465.777344 122.9375 464.488281 124.644531 C 463.203125 126.355469 461.792969 127.542969 460.253906 128.207031 C 459.316406 128.511719 458.546875 128.679688 457.941406 128.714844 C 457.566406 128.738281 457.253906 128.710938 457.003906 128.628906 C 456.355469 128.421875 455.90625 127.941406 455.660156 127.183594 L 455.132813 123.21875 C 449.617188 126.839844 445.429688 132.617188 442.570313 140.558594 L 444.453125 168.894531 C 444.523438 169.371094 444.640625 170.316406 444.804688 171.726563 C 444.964844 173.132813 444.621094 174.265625 443.773438 175.125 C 442.921875 175.984375 441.402344 176.769531 439.207031 177.476563 C 437.378906 178.070313 435.867188 178.398438 434.679688 178.46875 C 434.246094 178.496094 433.855469 178.488281 433.503906 178.445313 C 432.199219 178.277344 431.265625 177.328125 430.703125 175.589844 L 429.152344 152.160156 C 428.144531 138.703125 427.582031 130.117188 427.46875 126.394531 L 423.53125 123.90625 C 423.234375 123.753906 423.03125 123.527344 422.9375 123.222656 C 422.691406 122.464844 423.320313 121.574219 424.828125 120.542969 C 426.332031 119.515625 428.558594 118.523438 431.507813 117.570313 C 432.453125 117.265625 433.3125 117.089844 434.09375 117.046875 C 435.511719 116.960938 436.664063 117.300781 437.554688 118.0625 C 438.941406 119.242188 440.125 120.96875 441.109375 123.242188 L 441.269531 126.445313 C 442.734375 122.714844 444.761719 119.367188 447.355469 116.398438 C 449.945313 113.433594 452.488281 111.546875 454.988281 110.738281 C 456.804688 110.152344 458.453125 109.8125 459.9375 109.726563" style="stroke:none;fill-rule:nonzero;fill:rgb(45.843506%,16.220093%,13.33313%);fill-opacity:1;"></path>
</g>
</g>
</svg>
